<?xml version="1.0" encoding="UTF-8"?>
<svg width="192" height="192" viewBox="0 0 192 192" xmlns="http://www.w3.org/2000/svg">
  <defs>
    <linearGradient id="grad" x1="0%" y1="0%" x2="100%" y2="100%">
      <stop offset="0%" style="stop-color:#4a90e2;stop-opacity:1" />
      <stop offset="100%" style="stop-color:#357abd;stop-opacity:1" />
    </linearGradient>
  </defs>
  <rect width="192" height="192" rx="48" fill="url(#grad)"/>
  <path d="M96 88c13.3 0 24-10.7 24-24S109.3 40 96 40s-24 10.7-24 24 10.7 24 24 24zm32 24H64c-8.8 0-16 7.2-16 16v16c0 8.8 7.2 16 16 16h64c8.8 0 16-7.2 16-16v-16c0-8.8-7.2-16-16-16zm-32 36c-4.4 0-8-3.6-8-8s3.6-8 8-8 8 3.6 8 8-3.6 8-8 8z" fill="white"/>
</svg>